<svg width="298" height="281" viewBox="0 0 298 281" fill="none" xmlns="http://www.w3.org/2000/svg">
<path d="M248.028 137.902C243.997 149.356 253.816 156.876 263.65 157.805C264.131 148.518 260.121 136.963 248.028 137.902Z" fill="#D1C143"/>
<path d="M57.165 134.434C62.5535 123.553 53.718 114.899 44.0685 112.785C42.4667 121.945 45.0464 133.901 57.165 134.434Z" fill="#D1C143"/>
<path d="M13.2729 94.4382C14.4682 87.1198 7.7587 83.6513 1.74634 84.147C2.45325 89.7821 6.10249 96.2995 13.2729 94.4382Z" fill="#D1C143"/>
<path d="M21.4634 61.6105C25.7602 58.3081 23.9191 53.1043 20.467 50.3618C18.0258 53.7184 16.7112 59.0167 21.4634 61.6105Z" fill="#D1C143"/>
<path d="M284.758 154.169C285.91 160.696 292.594 161.642 297.52 159.45C295.261 154.904 290.258 150.483 284.758 154.169Z" fill="#D1C143"/>
<path d="M249.805 141.562C258.843 141.194 261.341 132.325 259.272 125.262C252.712 127.49 245.821 133.451 249.805 141.562Z" fill="#D1C143"/>
<path d="M227.64 73.6233C256.37 107.299 249.365 149.359 242.271 166.18C203.962 265.917 105.584 233.255 82.4791 209.519C59.3739 185.783 48.9535 159.157 65.2436 99.1757C81.5336 39.1941 191.726 31.5292 227.64 73.6233Z" stroke="#D1C143" stroke-width="2"/>
<path d="M212.429 30.6888C260.262 58.0795 269.734 110.323 268.491 133.021C265.522 266.026 136.485 269.104 99.4248 250.998C62.3646 232.892 38.957 206.065 32.8323 128.913C26.7076 51.7619 152.639 -3.54964 212.429 30.6888Z" stroke="#D1C143" stroke-width="2" stroke-linecap="round" stroke-linejoin="round" stroke-dasharray="10 30"/>
<g clip-path="url(#clip0_168_1582)">
<path d="M176 128.492C175.202 122.88 172.69 118.9 169.893 114.17C169.119 112.872 167.226 113.753 167.524 115.171C168.94 121.879 170.012 130.982 167.952 137.618C165.94 144.064 161.131 146.244 156.107 149.902C155.631 150.247 155.321 150.688 155.155 151.153C153.143 151.939 151.024 152.439 148.881 152.606C140.583 153.214 134.607 148.162 127.226 145.505C126.452 145.219 125.881 146.053 126 146.732C127.738 156.705 140.714 160.482 149.512 159.743C155.179 159.266 164.286 156.24 168.571 150.891C171.298 148.329 173.429 144.921 174.607 141.967C176.31 137.678 176.643 133.055 176 128.515V128.492Z" fill="#DAD0C6"/>
<path d="M168.833 127.133C168.833 125.37 166.202 125.394 166.119 127.133C165.917 131.411 163.226 136.641 160.095 140.68C160.309 138.488 159.857 136.081 159.809 134.079C159.762 131.887 160.262 131.53 161.655 129.981C162.69 128.825 163.381 127.848 163.833 126.347C164.179 125.239 163.833 123.702 162.929 122.939C159.643 120.151 157.131 123.845 155.012 126.264C153.559 127.92 152.762 129.397 152.488 131.601C152.369 132.531 153.059 136.677 153.095 138.833C150.762 138.237 148.369 136.808 145.988 136.76C143.083 136.689 140.833 138.047 138.845 140.048C137.643 141.264 138.429 143.992 140.381 143.754C142.048 143.551 144.107 142.741 145.738 142.944C147.702 143.182 149.917 144.552 151.738 145.291C152.714 145.696 153.726 145.982 154.702 146.041C152.726 147.423 150.512 148.412 148.155 149.032C145.417 149.747 142.726 149.735 140.202 151.129C138.893 151.856 138.464 154.024 139.702 155.049C145.893 160.208 155.881 155.215 161.071 150.7C164.095 148.067 166.429 144.576 167.845 140.835C169.679 135.998 168.845 132.078 168.845 127.121L168.833 127.133Z" fill="#DAD0C6"/>
<path d="M137.75 142.455C137.571 142.455 137.393 142.419 137.226 142.336C136.762 142.122 136.464 141.645 136.488 141.133C136.571 139.191 136.726 137.213 136.869 135.307C136.94 134.365 137.012 133.424 137.071 132.483C135.44 131.351 133.262 129.731 131.143 127.896C130.81 127.61 130.655 127.169 130.726 126.74C130.798 126.311 131.083 125.942 131.488 125.775C134.202 124.655 136.94 123.916 139.929 123.166C140.512 119.413 141.143 115.993 141.857 112.741C141.964 112.24 142.369 111.859 142.869 111.764C143.369 111.68 143.881 111.907 144.155 112.336C144.976 113.634 146.333 115.993 148.798 120.259L149.143 120.854C152.083 120.831 155.226 120.759 158.393 120.473C158.905 120.426 159.393 120.7 159.631 121.152C159.869 121.617 159.798 122.165 159.464 122.558C157.381 124.965 155.548 127.217 153.869 129.409C154.131 131.971 154.738 134.532 155.345 137.01C155.512 137.689 155.679 138.369 155.833 139.048C155.94 139.524 155.762 140.025 155.381 140.334C154.988 140.632 154.464 140.68 154.024 140.454C152.274 139.548 150.488 138.762 148.75 137.999C147.56 137.475 146.333 136.939 145.143 136.367C142.81 138.19 140.631 140.191 138.619 142.11C138.381 142.336 138.071 142.455 137.75 142.455ZM134.44 127.36C136.19 128.766 137.869 129.969 139.095 130.803C139.464 131.053 139.667 131.482 139.643 131.923C139.571 133.102 139.476 134.294 139.393 135.485C139.333 136.343 139.262 137.225 139.202 138.095C140.786 136.653 142.464 135.211 144.238 133.865C144.619 133.579 145.131 133.531 145.56 133.746C146.929 134.425 148.31 135.033 149.774 135.664C150.762 136.093 151.762 136.534 152.762 136.998C152.155 134.449 151.548 131.828 151.321 129.111C151.298 128.801 151.381 128.492 151.571 128.241C152.821 126.597 154.155 124.917 155.607 123.178C153.131 123.309 150.726 123.345 148.44 123.356C147.988 123.356 147.571 123.118 147.345 122.725L146.631 121.498C145.393 119.353 144.429 117.697 143.69 116.41C143.202 118.912 142.75 121.534 142.31 124.357C142.238 124.858 141.857 125.275 141.357 125.394C138.893 126.001 136.631 126.573 134.44 127.324V127.36Z" fill="#796E63"/>
<path d="M146.786 153.69C139.917 153.69 133.202 150.914 128.286 146.029C123.429 141.216 120.798 134.878 120.857 128.194C120.988 114.552 132.643 103.507 146.845 103.662C148.357 103.674 149.881 103.817 151.381 104.091C156.071 104.937 160.286 106.95 163.917 110.06C168.869 114.313 171.893 120.95 172.012 127.824C172.262 142.801 159.155 153.476 147.238 153.69C147.083 153.69 146.929 153.69 146.786 153.69ZM146.619 106.2C133.905 106.2 123.5 116.041 123.381 128.229C123.321 134.222 125.69 139.905 130.06 144.242C134.607 148.758 140.857 151.284 147.202 151.165C157.929 150.974 169.714 141.359 169.488 127.872C169.381 121.712 166.69 115.779 162.274 111.99C158.94 109.131 155.226 107.367 150.929 106.581C149.571 106.331 148.19 106.212 146.821 106.2C146.75 106.2 146.679 106.2 146.619 106.2Z" fill="#796E63"/>
<path d="M183.714 115.648C182.333 112.217 180.405 109.035 177.869 106.331C174.917 103.186 171.929 101.72 168.048 100.076C167.345 99.778 166.5 100.612 167.167 101.22C171.929 105.616 175.845 112.383 177.869 118.472C178.238 119.592 178.524 120.723 178.774 121.855C178.679 128.849 179.488 135.521 176.655 142.217C173.702 149.151 168.071 154.501 161.321 157.706C154.595 160.899 146.81 161.649 139.571 160.017C131.81 158.266 125.31 154.191 118.56 150.188C117.702 149.675 116.726 150.688 117.214 151.534C126.476 167.738 149.643 170.657 165.31 163.246C173.369 159.433 179.786 152.725 183.179 144.469C184.607 140.966 185.667 137.046 185.905 133.15C187.69 127.741 185.56 120.152 183.726 115.624L183.714 115.648Z" fill="#DAD0C6"/>
<path d="M148.786 167.726C147.607 167.309 146.167 167.797 145.31 168.643C144.571 169.382 143.952 170.204 143.44 171.085C143.131 170.978 142.81 170.895 142.417 170.859C140.905 170.74 140.393 171.741 139.167 172.003C136.345 172.622 132.036 169.954 129.274 169.215C123.345 167.618 121.631 172.372 120.857 177.603C120.714 178.544 121.976 178.937 122.31 177.996C122.845 176.471 123.75 174.469 125.19 173.385C129.024 176.983 135.226 180.796 140.476 179.95C139.429 184.453 138.464 188.933 137.857 193.52C137.357 197.285 142.893 197.416 144.048 194.354C146.214 188.623 147.298 182.619 149.298 176.84C150.357 173.778 153.333 169.31 148.798 167.702L148.786 167.726Z" fill="#DAD0C6"/>
<path d="M195.214 140.156C193.988 138.857 192.19 139.977 192.012 141.478C191.464 146.208 185.94 147.078 183.631 150.664C182.536 152.356 182.262 154.227 181.798 156.133C181.155 158.79 180.107 159.85 177.857 161.292C176.452 162.185 175.06 163.067 173.679 163.925C173.167 163.83 172.571 164.08 172.333 164.533C172.286 164.628 172.238 164.723 172.202 164.818C166.012 168.512 159.774 171.538 152.357 172.896C151.381 173.075 151.274 174.314 151.821 174.946C155.762 179.533 161.869 178.901 167.024 176.804C168.94 176.018 170.917 175.065 172.881 174.016C173.036 174.433 173.202 174.827 173.369 175.196C174.976 178.866 177.512 183.047 181.333 184.584C185.083 186.098 188.583 180.14 185.369 177.65C182.952 175.78 180.952 173.135 179.167 170.668C179.107 170.585 179.048 170.49 178.976 170.394C180.893 169.155 182.726 167.869 184.417 166.582C186.655 164.866 188.131 162.876 188.655 160.077C189.357 156.371 188.274 153.762 191.583 151.081C194.905 148.389 199.107 144.29 195.202 140.168L195.214 140.156Z" fill="#DAD0C6"/>
<path d="M138.083 174.85C134.321 174.85 132.595 172.801 131.071 170.978C129.655 169.298 128.548 167.964 125.881 167.964C124.369 167.964 123.25 168.309 122.155 168.643C121.238 168.929 120.369 169.191 119.417 169.191C116.714 169.191 114.405 167.511 113.798 165.093C112 157.908 109.012 156.228 106.381 154.739C104.131 153.464 101.798 152.154 101.798 147.698C101.798 145.362 102.607 144.147 103.321 143.075C104.036 141.991 104.667 141.061 104.667 138.702C104.667 134.234 102.583 132.185 100.571 130.219C98.8214 128.504 97 126.728 97 123.654C97 119.997 99.2143 118.162 101.345 116.375C103.798 114.337 106.107 112.407 106.107 107.51C106.107 106.939 106.095 106.355 106.071 105.771C106.06 105.151 106.036 104.532 106.036 103.912C106.036 96.9662 109.238 93.1298 115.048 93.1298C115.81 93.1298 116.583 93.1775 117.321 93.2251C118.071 93.2728 118.774 93.3204 119.464 93.3204C122.821 93.3204 123.702 91.4737 124.929 88.9241C126.417 85.8263 128.262 81.9661 135.238 81.9661C138.667 81.9661 140.845 83.2647 142.762 84.4085C144.214 85.2783 145.476 86.0289 147.06 86.0289C148.643 86.0289 149.988 85.314 151.488 84.48C153.512 83.36 155.798 82.0971 159.44 82.0971C164.595 82.0971 167.464 87.1131 169 89.8057C170.405 92.2601 173.143 92.8915 176.048 93.5587C180.012 94.4642 184.952 95.5961 184.952 102.661C184.952 103.197 184.929 103.734 184.905 104.27C184.881 104.77 184.857 105.259 184.857 105.747C184.857 108.833 186.679 109.989 188.976 111.466C191.381 113.003 194.381 114.921 194.381 119.568C194.381 121.021 194 122.38 193.262 123.619C193.024 124.012 192.774 124.417 192.524 124.822C191.214 126.931 189.857 129.111 189.857 131.113C189.857 132.316 190.548 133.424 191.357 134.687C192.417 136.355 193.619 138.25 193.619 140.93C193.619 145.219 190.321 146.971 188.357 148.007L188.048 148.174C185.524 149.52 185.5 150.76 185.464 152.797C185.393 157.003 184.476 160.827 173.94 165.116C171 166.308 169.798 168.059 168.643 169.739C167.345 171.634 166 173.588 162.56 173.588C160.333 173.588 157.619 172.873 154.988 172.182C152.69 171.574 150.321 170.954 148.702 170.954C146.417 170.954 145.298 171.753 144.012 172.682C142.619 173.683 141.036 174.827 138.095 174.827L138.083 174.85ZM125.881 165.45C129.726 165.45 131.464 167.523 133.012 169.358C134.405 171.014 135.5 172.325 138.083 172.325C140.214 172.325 141.238 171.586 142.524 170.657C143.952 169.632 145.583 168.452 148.69 168.452C150.643 168.452 153.06 169.084 155.619 169.763C158.083 170.418 160.643 171.085 162.548 171.085C164.667 171.085 165.333 170.108 166.548 168.333C167.786 166.522 169.333 164.282 172.976 162.793C182.821 158.79 182.869 155.728 182.917 152.773C182.952 150.545 183 148.019 186.845 145.97L187.167 145.803C189.464 144.588 191.083 143.539 191.083 140.966C191.083 139.024 190.179 137.594 189.226 136.081C188.298 134.616 187.333 133.091 187.333 131.149C187.333 128.42 188.952 125.811 190.381 123.511C190.631 123.118 190.869 122.725 191.095 122.344C191.595 121.498 191.857 120.581 191.857 119.592C191.857 116.327 189.988 115.136 187.619 113.623C185.143 112.038 182.333 110.239 182.333 105.771C182.333 105.247 182.357 104.711 182.381 104.174C182.405 103.674 182.429 103.174 182.429 102.685C182.429 97.6454 179.512 96.9782 175.488 96.0488C172.333 95.3221 168.774 94.5119 166.81 91.0925C165.036 87.9828 162.845 84.6587 159.452 84.6587C156.452 84.6587 154.56 85.7072 152.726 86.7199C151.071 87.6373 149.357 88.5785 147.083 88.5785C144.81 88.5785 143.119 87.5777 141.5 86.6008C139.702 85.5285 138 84.5157 135.262 84.5157C129.881 84.5157 128.655 87.0773 127.226 90.0321C125.917 92.7605 124.429 95.8582 119.488 95.8582C118.714 95.8582 117.94 95.8106 117.19 95.7629C116.452 95.7152 115.762 95.6676 115.071 95.6676C113.464 95.6676 108.583 95.6676 108.583 103.912C108.583 104.508 108.595 105.104 108.619 105.699C108.631 106.307 108.655 106.915 108.655 107.51C108.655 113.587 105.512 116.208 102.988 118.317C100.988 119.985 99.5476 121.176 99.5476 123.654C99.5476 125.656 100.726 126.812 102.357 128.408C104.524 130.529 107.214 133.162 107.214 138.702C107.214 141.812 106.238 143.289 105.452 144.469C104.81 145.434 104.345 146.125 104.345 147.698C104.345 150.664 105.524 151.331 107.643 152.535C110.417 154.096 114.214 156.24 116.274 164.485C116.595 165.772 117.893 166.665 119.44 166.665C120.012 166.665 120.667 166.463 121.429 166.224C122.571 165.867 124.012 165.438 125.893 165.438L125.881 165.45Z" fill="#796E63"/>
<path d="M146.202 163.806C136.643 163.806 127.643 159.922 120.833 152.833C113.833 145.553 110.095 135.688 110.571 125.775C111.345 109.524 125.19 95.7867 142.071 94.488C143.381 94.3927 144.679 94.3331 145.917 94.3331C166.345 94.3331 180.893 107.975 181.333 127.491C181.548 137.106 178.012 146.184 171.381 153.035C164.845 159.791 155.786 163.71 146.536 163.806C146.429 163.806 146.321 163.806 146.214 163.806H146.202ZM145.905 96.8709C144.726 96.8709 143.5 96.9185 142.262 97.0139C126.619 98.2172 113.81 110.906 113.083 125.894C112.643 135.116 116.131 144.29 122.643 151.081C129.036 157.741 137.536 161.363 146.488 161.28C155.06 161.197 163.464 157.551 169.536 151.284C175.69 144.921 178.976 136.498 178.774 127.55C178.369 109.488 164.857 96.8828 145.893 96.8709H145.905Z" fill="#796E63"/>
<path d="M136.929 197.392C136.643 197.392 136.357 197.297 136.131 197.106C133.25 194.735 129.381 191.316 126.702 188.778C125.536 188.957 124.357 189.112 123.179 189.255C120.393 189.612 117.512 189.994 114.786 190.649C114.321 190.756 113.833 190.601 113.536 190.244C113.226 189.886 113.143 189.374 113.321 188.945C115.976 182.499 119.012 176.137 121.952 170.001L123.393 166.987C123.69 166.355 124.452 166.093 125.071 166.391C125.702 166.689 125.964 167.452 125.667 168.071L124.226 171.085C121.643 176.483 118.976 182.059 116.583 187.682C118.679 187.289 120.786 187.015 122.857 186.741C124.214 186.562 125.583 186.384 126.929 186.181C127.321 186.121 127.714 186.241 128 186.515C130.167 188.588 133.31 191.399 136.024 193.699C137.024 187.849 139.095 182.368 140.929 177.472C141.738 175.315 142.512 173.266 143.083 171.467C143.298 170.8 144 170.43 144.667 170.645C145.333 170.859 145.702 171.562 145.488 172.229C144.893 174.1 144.119 176.173 143.298 178.377C141.262 183.762 138.964 189.874 138.202 196.284C138.143 196.737 137.845 197.13 137.417 197.309C137.262 197.369 137.107 197.404 136.952 197.404L136.929 197.392Z" fill="#796E63"/>
<path d="M160.31 194.044C159.81 194.033 159.393 193.77 159.19 193.353C157.286 189.636 155.69 185.728 154.143 181.939C152.714 178.437 151.238 174.803 149.524 171.383C149.214 170.764 149.464 170.001 150.083 169.692C150.702 169.382 151.464 169.632 151.774 170.251C153.524 173.754 155.024 177.424 156.464 180.974C157.702 184.013 158.976 187.134 160.405 190.137C161.929 187.646 163.798 184.787 165.917 182.082C166.202 181.713 166.667 181.534 167.119 181.618C169.667 182.047 173.167 182.44 176.226 182.738C172.286 176.781 170.083 171.36 169.333 165.831C169.238 165.14 169.726 164.497 170.417 164.402C171.107 164.306 171.75 164.795 171.833 165.486C172.619 171.264 175.155 176.983 179.81 183.488C180.095 183.893 180.119 184.418 179.881 184.847C179.643 185.275 179.167 185.514 178.679 185.478C175.369 185.204 170.81 184.727 167.44 184.203C165.024 187.372 162.94 190.756 161.369 193.389C161.143 193.77 160.726 194.009 160.286 194.009L160.31 194.044Z" fill="#796E63"/>
</g>
<path d="M218.889 138.709C218.234 138.709 217.674 138.197 217.627 137.541C217.543 136.362 217.496 135.111 217.496 133.681C217.496 132.251 217.543 130.714 217.579 129.285C217.579 129.058 217.591 128.832 217.603 128.605C217.543 128.641 217.472 128.689 217.413 128.725C216.77 129.118 216.151 129.499 215.651 129.964C215.139 130.44 214.341 130.405 213.865 129.892C213.389 129.38 213.424 128.582 213.948 128.105C214.639 127.474 215.377 127.021 216.103 126.58C216.817 126.139 217.496 125.722 218.043 125.186C218.401 124.817 218.96 124.721 219.424 124.912C219.901 125.115 220.198 125.579 220.198 126.092C220.186 127.188 220.151 128.284 220.115 129.368C220.067 130.786 220.032 132.251 220.032 133.693C220.032 135.051 220.067 136.255 220.151 137.363C220.198 138.054 219.674 138.661 218.984 138.721C218.948 138.721 218.924 138.721 218.889 138.721V138.709Z" fill="#796E63"/>
<path d="M199.436 133.335C199.198 133.097 199.055 132.775 199.067 132.406C199.079 131.703 199.662 131.155 200.365 131.179C201.579 131.215 202.77 131.25 203.972 131.298C206.305 131.382 208.52 131.453 210.77 131.453C211.472 131.453 212.032 132.013 212.032 132.716C212.032 133.419 211.472 133.979 210.77 133.979C208.472 133.979 206.139 133.895 203.889 133.824C202.698 133.788 201.508 133.741 200.305 133.717C199.972 133.717 199.662 133.562 199.448 133.347L199.436 133.335Z" fill="#796E63"/>
<path d="M204.734 139.174C204.651 139.042 204.579 138.899 204.543 138.733C203.829 135.492 204.055 133.145 204.258 131.06C204.401 129.571 204.532 128.284 204.258 126.902C204.127 126.211 204.579 125.555 205.258 125.424C205.948 125.293 206.603 125.746 206.734 126.425C207.067 128.165 206.913 129.69 206.758 131.298C206.567 133.276 206.365 135.325 206.996 138.173C207.151 138.852 206.722 139.531 206.032 139.686C205.508 139.805 204.996 139.579 204.71 139.162L204.734 139.174Z" fill="#796E63"/>
<path fill-rule="evenodd" clip-rule="evenodd" d="M195.255 112.879C196.276 112.063 197.375 111.34 198.519 110.729L198.514 110.718C209.086 105.066 223.214 109.172 228.742 119.511C231.342 124.376 232.257 130.683 231.195 136.398C229.951 143.034 226.188 148.343 220.571 151.345C210.454 156.754 199.864 153.492 193.104 146.592C193.178 146.512 193.252 146.43 193.326 146.347C193.798 145.81 194.225 145.251 194.611 144.674C200.678 151.03 210.281 154.104 219.431 149.213C225.772 145.822 228.033 140.128 228.812 135.956C229.788 130.76 228.958 125.043 226.61 120.651C222.24 112.476 210.09 107.272 199.644 112.857C198.636 113.396 197.657 114.04 196.751 114.768C196.378 115.063 196.019 115.371 195.673 115.69C195.265 114.961 194.809 114.278 194.339 113.653C194.636 113.389 194.942 113.131 195.255 112.879Z" fill="#796E63"/>
<defs>
<clipPath id="clip0_168_1582">
<rect width="120" height="133" fill="white" transform="translate(97 82.0137)"/>
</clipPath>
</defs>
</svg>
